<?xml version="1.0" encoding="UTF-8" standalone="no"?>
<svg
   xmlns:dc="http://purl.org/dc/elements/1.1/"
   xmlns:cc="http://creativecommons.org/ns#"
   xmlns:rdf="http://www.w3.org/1999/02/22-rdf-syntax-ns#"
   xmlns:svg="http://www.w3.org/2000/svg"
   xmlns="http://www.w3.org/2000/svg"
   id="svg8436"
   version="1.1"
   viewBox="0 0 2.4558425 2.4534528"
   height="2.4534528mm"
   width="2.4558425mm">
  <defs
     id="defs8430">
    <clipPath
       id="clip18">
      <rect
         x="0"
         y="0"
         width="27"
         height="28"
         id="rect1402" />
    </clipPath>
    <clipPath
       id="clip19">
      <path
         d="m 0.640625,0.839844 h 26.3125 v 26.289062 h -26.3125 z m 0,0"
         id="path1399" />
    </clipPath>
    <clipPath
       id="clipPath8423">
      <rect
         x="0"
         y="0"
         width="27"
         height="28"
         id="rect8421" />
    </clipPath>
    <clipPath
       id="clipPath8427">
      <path
         d="m 0.640625,0.839844 h 26.3125 v 26.289062 h -26.3125 z m 0,0"
         id="path8425" />
    </clipPath>
  </defs>
  <metadata
     id="metadata8433">
    <rdf:RDF>
      <cc:Work
         rdf:about="">
        <dc:format>image/svg+xml</dc:format>
        <dc:type
           rdf:resource="http://purl.org/dc/dcmitype/StillImage" />
        <dc:title></dc:title>
      </cc:Work>
    </rdf:RDF>
  </metadata>
  <g
     transform="translate(134.83069,138.02528)"
     id="layer1">
    <g
       clip-path="url(#clip18)"
       id="use2381"
       transform="matrix(0.09333912,0,0,0.09333912,-134.89063,-138.10402)">
      <g
         id="g9008"
         clip-path="url(#clip19)"
         style="clip-rule:nonzero">
        <path
           id="path9006"
           d="m 22.765625,17.550781 c -0.214844,-0.09766 -0.464844,-0.07422 -0.660156,0.06641 -1.269531,0.9375 -2.777344,1.503906 -4.355469,1.628906 V 18.640628 C 17.77344,13.910159 13.953125,10.058597 9.222656,10.035159 H 8.539062 c 0.347657,-4.710937 4.445313,-8.25 9.160157,-7.902344 4.710937,0.347657 8.25,4.445313 7.902343,9.15625 -0.117187,1.613282 -0.691406,3.15625 -1.652343,4.457032 -0.140625,0.191406 -0.171875,0.441406 -0.07813,0.660156 l 0.894531,2.027344 z M 9.195312,25.828125 c -1.519531,0.02344 -3.007812,-0.4375 -4.25,-1.316406 -0.191406,-0.140625 -0.441406,-0.164063 -0.65625,-0.06641 l -1.515624,0.671876 0.671874,-1.511719 c 0.09375,-0.21875 0.066407,-0.46875 -0.078124,-0.660157 -2.40625,-3.191406 -1.769532,-7.730468 1.425781,-10.136718 3.191406,-2.40625 7.730469,-1.769532 10.136719,1.425781 2.402343,3.191406 1.765624,7.730469 -1.425782,10.136719 -1.242187,0.933594 -2.753906,1.445312 -4.308594,1.457031 m 16.070313,-9.59375 C 28.3125,11.714844 27.121094,5.578125 22.601562,2.53125 18.082031,-0.515625 11.949219,0.675781 8.898438,5.195312 7.886719,6.699219 7.304688,8.457031 7.222656,10.273438 2.625,11.363281 -0.214844,15.976562 0.875,20.570312 1.109375,21.5625 1.523438,22.503906 2.089844,23.355469 l -1.199219,2.734375 c -0.144531,0.332031 0.003906,0.722656 0.335937,0.871094 0.171876,0.07422 0.363282,0.07422 0.535157,0 l 2.734375,-1.226563 c 3.953125,2.589844 9.257812,1.484375 11.84375,-2.46875 0.558594,-0.851563 0.960937,-1.796875 1.1875,-2.792969 1.800781,-0.07031 3.550781,-0.632812 5.054687,-1.632812 l 3.234375,1.445312 c 0.25,0.113282 0.542969,0.05859 0.738282,-0.128906 0.199218,-0.191406 0.253906,-0.484375 0.144531,-0.738281 z m 0,0"
           style="fill:#5e5e5e;fill-opacity:1;fill-rule:nonzero;stroke:none" />
      </g>
    </g>
  </g>
</svg>
