<?xml version="1.0" encoding="UTF-8" standalone="no"?>
<svg
   xmlns:dc="http://purl.org/dc/elements/1.1/"
   xmlns:cc="http://creativecommons.org/ns#"
   xmlns:rdf="http://www.w3.org/1999/02/22-rdf-syntax-ns#"
   xmlns:svg="http://www.w3.org/2000/svg"
   xmlns="http://www.w3.org/2000/svg"
   id="svg7808"
   version="1.1"
   viewBox="0 0 2.837728 2.4352031"
   height="2.4352031mm"
   width="2.837728mm">
  <defs
     id="defs7802">
    <clipPath
       id="clip20">
      <rect
         x="0"
         y="0"
         width="32"
         height="28"
         id="rect1413" />
    </clipPath>
    <clipPath
       id="clip21">
      <path
         d="M 0.925781,0.941406 H 31.328125 V 27.03125 H 0.925781 Z m 0,0"
         id="path1410" />
    </clipPath>
    <clipPath
       id="clipPath7795">
      <rect
         x="0"
         y="0"
         width="32"
         height="28"
         id="rect7793" />
    </clipPath>
    <clipPath
       id="clipPath7799">
      <path
         d="M 0.925781,0.941406 H 31.328125 V 27.03125 H 0.925781 Z m 0,0"
         id="path7797" />
    </clipPath>
  </defs>
  <metadata
     id="metadata7805">
    <rdf:RDF>
      <cc:Work
         rdf:about="">
        <dc:format>image/svg+xml</dc:format>
        <dc:type
           rdf:resource="http://purl.org/dc/dcmitype/StillImage" />
        <dc:title></dc:title>
      </cc:Work>
    </rdf:RDF>
  </metadata>
  <g
     transform="translate(389.22244,-155.93121)"
     id="layer1">
    <g
       clip-path="url(#clip20)"
       id="use2383"
       transform="matrix(0.09333912,0,0,0.09333912,-389.30885,155.84334)">
      <g
         id="g8380"
         clip-path="url(#clip21)"
         style="clip-rule:nonzero">
        <path
           id="path8378"
           d="M 30.148438,9.5 C 30.042969,11.367188 29.191406,13.144531 27.75,14.507812 l -3.859375,3.65625 -1.046875,-1.171874 c -0.363281,-0.402344 -0.886719,-0.628907 -1.429688,-0.628907 -0.488281,0 -0.953124,0.179688 -1.3125,0.511719 -0.371093,0.335938 -0.589843,0.796875 -0.628906,1.296875 -0.0625,-0.0078 -0.121094,-0.01172 -0.183594,-0.01172 -0.53125,0 -1.039062,0.199219 -1.433593,0.558594 -0.445313,0.410156 -0.671875,0.972656 -0.671875,1.535156 -0.03516,-0.0039 -0.06641,-0.0039 -0.101563,-0.0039 -0.503906,0 -0.992187,0.191406 -1.375,0.539062 -0.441406,0.40625 -0.667969,0.960938 -0.675781,1.519532 -0.535156,-0.02734 -1.082031,0.152344 -1.507812,0.542968 -0.226563,0.207032 -0.394532,0.457032 -0.503907,0.722657 -0.03906,-0.02344 -0.07422,-0.05078 -0.09766,-0.07813 -0.355469,-0.371094 -0.328125,-1.015625 0.05469,-1.375 0,-0.0039 0,-0.0039 0,-0.0039 l 7.074219,-6.691407 c 0.234375,-0.222656 0.242188,-0.59375 0.01953,-0.828125 -0.04297,-0.04687 -0.09375,-0.08203 -0.148437,-0.109375 0.664063,0.0625 1.347656,-0.144531 1.867187,-0.636719 0.460938,-0.4375 0.722657,-1.023437 0.738282,-1.660156 0.01953,-0.632812 -0.210938,-1.234375 -0.652344,-1.699218 L 16.792969,5.175781 17.921875,4.121094 C 19.339844,2.78125 21.195312,2.070312 23.148438,2.125 c 1.953124,0.050781 3.769531,0.863281 5.113281,2.28125 1.324219,1.398438 1.996093,3.207031 1.886719,5.09375 m -12.375,12.234375 1.082031,1.171875 -1.320313,1.246094 -0.605468,-0.660156 -0.484376,-0.53125 C 16.097656,22.582031 16.125,21.996094 16.5,21.648438 16.664062,21.5 16.867188,21.417969 17.082031,21.417969 c 0.257813,0 0.507813,0.117187 0.691407,0.316406 m 2.859374,-3.449219 c 0.01172,-0.210937 0.105469,-0.40625 0.261719,-0.550781 0.140625,-0.128906 0.328125,-0.203125 0.519531,-0.203125 0.21875,0 0.421876,0.08984 0.5625,0.246094 l 1.066407,1.1875 -1.121094,1.0625 -1.089844,-1.191406 c -0.0039,-0.0078 -0.01172,-0.01172 -0.01563,-0.01563 C 20.6875,18.675781 20.625,18.484375 20.632812,18.285156 m -0.679687,1.328125 c 0.0039,0.0039 0.0078,0.0078 0.01172,0.01172 l 1.101562,1.207031 -1.359375,1.269531 -1.113281,-1.210937 c -0.347656,-0.378906 -0.324219,-0.964844 0.05469,-1.3125 0.175781,-0.160156 0.402343,-0.246094 0.640624,-0.246094 0.257813,0 0.492188,0.101563 0.664063,0.28125 m -5.109375,6.007813 -0.542969,-0.578125 c -0.0039,-0.0078 -0.0078,-0.01172 -0.01563,-0.01953 -0.171875,-0.191407 -0.257812,-0.425782 -0.253906,-0.660157 0,-0.01172 0,-0.02344 0,-0.03125 0.01172,-0.230469 0.101562,-0.457031 0.28125,-0.621093 0.375,-0.34375 0.945312,-0.3125 1.292969,0.06641 l 1.078125,1.179687 -0.644532,0.601563 c -0.320312,0.304687 -0.800781,0.476562 -1.195312,0.0625 m -2.707031,-4.316406 c -0.183594,0.171874 -0.421875,0.257812 -0.671875,0.253906 -0.253906,-0.0039 -0.488282,-0.109375 -0.660156,-0.292969 -0.355469,-0.375 -0.335938,-0.949219 0.03906,-1.308594 0.0039,0 0.0039,-0.0039 0.0078,-0.0078 0.01172,-0.01172 0.02734,-0.02344 0.04297,-0.03516 L 17.945312,13.25 l 0.484376,0.511719 c 0.316406,0.332031 0.710937,0.554687 1.128906,0.660156 -0.113282,0.01953 -0.222656,0.07031 -0.3125,0.152344 z m 5.003906,-8.90625 -7.050781,6.664062 C 9.710936,19.417975 9.113279,19.40235 8.75781,19.027346 8.402342,18.652346 8.417967,18.05469 8.796873,17.699221 L 15.84375,11.03125 Z M 4.246094,4.210938 C 7.042969,1.558594 11.105469,1.414062 13.914062,3.859375 l 1.617188,1.691406 c 0,0 0,0.00391 0.0039,0.00391 l 5.496094,5.746093 c 0.21875,0.230469 0.335938,0.539063 0.328125,0.859375 -0.0078,0.324219 -0.140625,0.621094 -0.375,0.84375 -0.484375,0.457032 -1.25,0.4375 -1.703125,-0.04687 L 14.769531,8.195312 C 14.589844,8.007812 14.320312,7.953125 14.09375,8.070312 14.03125,8.097656 12.550781,8.730469 10.496094,6.5625 10.273438,6.328125 9.90625,6.320312 9.671875,6.542969 9.4375,6.761719 9.425781,7.132812 9.648438,7.367188 c 2.011718,2.128906 3.742187,2.074218 4.519531,1.894531 l 0.875,0.921875 -7.050781,6.664062 c -0.269532,0.253906 -0.453126,0.5625 -0.558594,0.890625 L 6.773438,17.039062 C 6.753906,17.015625 6.730469,17 6.710938,16.980469 L 4.203125,14.324219 C 1.382812,11.347656 1.402344,6.902344 4.246094,4.210938 M 29.109375,3.601562 C 27.554688,1.957031 25.445312,1.015625 23.183594,0.953125 c -2.269532,-0.0625 -4.421875,0.761719 -6.0625,2.316406 L 15.984375,4.332031 14.738281,3.03125 C 14.730469,3.019531 14.714844,3.007812 14.703125,2.996094 11.429688,0.125 6.691406,0.277344 3.441406,3.359375 0.121094,6.503906 0.0820312,11.675781 3.351562,15.128906 l 6.441407,6.828125 4.199219,4.464844 c 0,0 0.0039,0 0.0039,0.0039 0.382812,0.40625 0.875,0.609375 1.375,0.609375 0.472656,0 0.957031,-0.183594 1.375,-0.542968 0.01953,-0.01563 0.04297,-0.02734 0.0625,-0.04688 l 1.089844,-1.027343 3.398437,-3.191407 1.917969,-1.8125 1.042968,-0.988281 4.296876,-4.066406 c 1.65625,-1.570313 2.636718,-3.625 2.761718,-5.792969 0.125,-2.210937 -0.65625,-4.328125 -2.207031,-5.964844"
           style="fill:#5e5e5e;fill-opacity:1;fill-rule:nonzero;stroke:none" />
      </g>
    </g>
    <g
       transform="matrix(0.09333912,0,0,0.09333912,-389.30885,155.84334)"
       id="g8388"
       clip-path="url(#clip20)">
      <g
         style="clip-rule:nonzero"
         clip-path="url(#clip21)"
         id="g8386">
        <path
           style="fill:#5e5e5e;fill-opacity:1;fill-rule:nonzero;stroke:none"
           d="M 30.148438,9.5 C 30.042969,11.367188 29.191406,13.144531 27.75,14.507812 l -3.859375,3.65625 -1.046875,-1.171874 c -0.363281,-0.402344 -0.886719,-0.628907 -1.429688,-0.628907 -0.488281,0 -0.953124,0.179688 -1.3125,0.511719 -0.371093,0.335938 -0.589843,0.796875 -0.628906,1.296875 -0.0625,-0.0078 -0.121094,-0.01172 -0.183594,-0.01172 -0.53125,0 -1.039062,0.199219 -1.433593,0.558594 -0.445313,0.410156 -0.671875,0.972656 -0.671875,1.535156 -0.03516,-0.0039 -0.06641,-0.0039 -0.101563,-0.0039 -0.503906,0 -0.992187,0.191406 -1.375,0.539062 -0.441406,0.40625 -0.667969,0.960938 -0.675781,1.519532 -0.535156,-0.02734 -1.082031,0.152344 -1.507812,0.542968 -0.226563,0.207032 -0.394532,0.457032 -0.503907,0.722657 -0.03906,-0.02344 -0.07422,-0.05078 -0.09766,-0.07813 -0.355469,-0.371094 -0.328125,-1.015625 0.05469,-1.375 0,-0.0039 0,-0.0039 0,-0.0039 l 7.074219,-6.691407 c 0.234375,-0.222656 0.242188,-0.59375 0.01953,-0.828125 -0.04297,-0.04687 -0.09375,-0.08203 -0.148437,-0.109375 0.664063,0.0625 1.347656,-0.144531 1.867187,-0.636719 0.460938,-0.4375 0.722657,-1.023437 0.738282,-1.660156 0.01953,-0.632812 -0.210938,-1.234375 -0.652344,-1.699218 L 16.792969,5.175781 17.921875,4.121094 C 19.339844,2.78125 21.195312,2.070312 23.148438,2.125 c 1.953124,0.050781 3.769531,0.863281 5.113281,2.28125 1.324219,1.398438 1.996093,3.207031 1.886719,5.09375 m -12.375,12.234375 1.082031,1.171875 -1.320313,1.246094 -0.605468,-0.660156 -0.484376,-0.53125 C 16.097656,22.582031 16.125,21.996094 16.5,21.648438 16.664062,21.5 16.867188,21.417969 17.082031,21.417969 c 0.257813,0 0.507813,0.117187 0.691407,0.316406 m 2.859374,-3.449219 c 0.01172,-0.210937 0.105469,-0.40625 0.261719,-0.550781 0.140625,-0.128906 0.328125,-0.203125 0.519531,-0.203125 0.21875,0 0.421876,0.08984 0.5625,0.246094 l 1.066407,1.1875 -1.121094,1.0625 -1.089844,-1.191406 c -0.0039,-0.0078 -0.01172,-0.01172 -0.01563,-0.01563 C 20.6875,18.675781 20.625,18.484375 20.632812,18.285156 m -0.679687,1.328125 c 0.0039,0.0039 0.0078,0.0078 0.01172,0.01172 l 1.101562,1.207031 -1.359375,1.269531 -1.113281,-1.210937 c -0.347656,-0.378906 -0.324219,-0.964844 0.05469,-1.3125 0.175781,-0.160156 0.402343,-0.246094 0.640624,-0.246094 0.257813,0 0.492188,0.101563 0.664063,0.28125 m -5.109375,6.007813 -0.542969,-0.578125 c -0.0039,-0.0078 -0.0078,-0.01172 -0.01563,-0.01953 -0.171875,-0.191407 -0.257812,-0.425782 -0.253906,-0.660157 0,-0.01172 0,-0.02344 0,-0.03125 0.01172,-0.230469 0.101562,-0.457031 0.28125,-0.621093 0.375,-0.34375 0.945312,-0.3125 1.292969,0.06641 l 1.078125,1.179687 -0.644532,0.601563 c -0.320312,0.304687 -0.800781,0.476562 -1.195312,0.0625 m -2.707031,-4.316406 c -0.183594,0.171874 -0.421875,0.257812 -0.671875,0.253906 -0.253906,-0.0039 -0.488282,-0.109375 -0.660156,-0.292969 -0.355469,-0.375 -0.335938,-0.949219 0.03906,-1.308594 0.0039,0 0.0039,-0.0039 0.0078,-0.0078 0.01172,-0.01172 0.02734,-0.02344 0.04297,-0.03516 L 17.945312,13.25 l 0.484376,0.511719 c 0.316406,0.332031 0.710937,0.554687 1.128906,0.660156 -0.113282,0.01953 -0.222656,0.07031 -0.3125,0.152344 z m 5.003906,-8.90625 -7.050781,6.664062 C 9.710936,19.417975 9.113279,19.40235 8.75781,19.027346 8.402342,18.652346 8.417967,18.05469 8.796873,17.699221 L 15.84375,11.03125 Z M 4.246094,4.210938 C 7.042969,1.558594 11.105469,1.414062 13.914062,3.859375 l 1.617188,1.691406 c 0,0 0,0.00391 0.0039,0.00391 l 5.496094,5.746093 c 0.21875,0.230469 0.335938,0.539063 0.328125,0.859375 -0.0078,0.324219 -0.140625,0.621094 -0.375,0.84375 -0.484375,0.457032 -1.25,0.4375 -1.703125,-0.04687 L 14.769531,8.195312 C 14.589844,8.007812 14.320312,7.953125 14.09375,8.070312 14.03125,8.097656 12.550781,8.730469 10.496094,6.5625 10.273438,6.328125 9.90625,6.320312 9.671875,6.542969 9.4375,6.761719 9.425781,7.132812 9.648438,7.367188 c 2.011718,2.128906 3.742187,2.074218 4.519531,1.894531 l 0.875,0.921875 -7.050781,6.664062 c -0.269532,0.253906 -0.453126,0.5625 -0.558594,0.890625 L 6.773438,17.039062 C 6.753906,17.015625 6.730469,17 6.710938,16.980469 L 4.203125,14.324219 C 1.382812,11.347656 1.402344,6.902344 4.246094,4.210938 M 29.109375,3.601562 C 27.554688,1.957031 25.445312,1.015625 23.183594,0.953125 c -2.269532,-0.0625 -4.421875,0.761719 -6.0625,2.316406 L 15.984375,4.332031 14.738281,3.03125 C 14.730469,3.019531 14.714844,3.007812 14.703125,2.996094 11.429688,0.125 6.691406,0.277344 3.441406,3.359375 0.121094,6.503906 0.0820312,11.675781 3.351562,15.128906 l 6.441407,6.828125 4.199219,4.464844 c 0,0 0.0039,0 0.0039,0.0039 0.382812,0.40625 0.875,0.609375 1.375,0.609375 0.472656,0 0.957031,-0.183594 1.375,-0.542968 0.01953,-0.01563 0.04297,-0.02734 0.0625,-0.04688 l 1.089844,-1.027343 3.398437,-3.191407 1.917969,-1.8125 1.042968,-0.988281 4.296876,-4.066406 c 1.65625,-1.570313 2.636718,-3.625 2.761718,-5.792969 0.125,-2.210937 -0.65625,-4.328125 -2.207031,-5.964844"
           id="path8384" />
      </g>
    </g>
  </g>
</svg>
