<?xml version="1.0" encoding="UTF-8" standalone="no"?>
<!-- Created with Inkscape (http://www.inkscape.org/) -->

<svg
   xmlns:dc="http://purl.org/dc/elements/1.1/"
   xmlns:cc="http://creativecommons.org/ns#"
   xmlns:rdf="http://www.w3.org/1999/02/22-rdf-syntax-ns#"
   xmlns:svg="http://www.w3.org/2000/svg"
   xmlns="http://www.w3.org/2000/svg"
   xmlns:sodipodi="http://sodipodi.sourceforge.net/DTD/sodipodi-0.dtd"
   xmlns:inkscape="http://www.inkscape.org/namespaces/inkscape"
   width="0.90750414mm"
   height="0.9078688mm"
   viewBox="0 0 0.90750414 0.9078688"
   version="1.1"
   id="svg15662"
   inkscape:version="0.92.4 5da689c313, 2019-01-14"
   sodipodi:docname="facebook.svg">
  <defs
     id="defs15656">
    <clipPath
       id="clip25">
      <rect
         id="rect10648"
         height="10"
         width="11"
         y="0"
         x="0" />
    </clipPath>
    <clipPath
       id="clip26">
      <path
         id="path10645"
         d="M 0.558594,0.0976562 H 10.28125 V 9.824219 H 0.558594 Z m 0,0"
         inkscape:connector-curvature="0" />
    </clipPath>
    <clipPath
       id="clipPath15649">
      <rect
         id="rect15647"
         height="10"
         width="11"
         y="0"
         x="0" />
    </clipPath>
    <clipPath
       id="clipPath15653">
      <path
         id="path15651"
         d="M 0.558594,0.0976562 H 10.28125 V 9.824219 H 0.558594 Z m 0,0"
         inkscape:connector-curvature="0" />
    </clipPath>
    <clipPath
       id="clip27">
      <rect
         id="rect10659"
         height="10"
         width="11"
         y="0"
         x="0" />
    </clipPath>
    <clipPath
       id="clip28">
      <path
         id="path10656"
         d="M 0.660156 0.0976562 L 10.386719 0.0976562 L 10.386719 9.824219 L 0.660156 9.824219 Z M 0.660156 0.0976562 " />
    </clipPath>
    <clipPath
       id="clipPath16271">
      <rect
         id="rect16269"
         height="10"
         width="11"
         y="0"
         x="0" />
    </clipPath>
    <clipPath
       id="clipPath16275">
      <path
         id="path16273"
         d="M 0.660156 0.0976562 L 10.386719 0.0976562 L 10.386719 9.824219 L 0.660156 9.824219 Z M 0.660156 0.0976562 " />
    </clipPath>
  </defs>
  <sodipodi:namedview
     id="base"
     pagecolor="#ffffff"
     bordercolor="#666666"
     borderopacity="1.0"
     inkscape:pageopacity="0.0"
     inkscape:pageshadow="2"
     inkscape:zoom="90.509668"
     inkscape:cx="1.9980002"
     inkscape:cy="0.82431658"
     inkscape:document-units="mm"
     inkscape:current-layer="layer1"
     showgrid="false"
     fit-margin-top="0"
     fit-margin-left="0"
     fit-margin-right="0"
     fit-margin-bottom="0"
     inkscape:window-width="2510"
     inkscape:window-height="1385"
     inkscape:window-x="50"
     inkscape:window-y="27"
     inkscape:window-maximized="1" />
  <metadata
     id="metadata15659">
    <rdf:RDF>
      <cc:Work
         rdf:about="">
        <dc:format>image/svg+xml</dc:format>
        <dc:type
           rdf:resource="http://purl.org/dc/dcmitype/StillImage" />
        <dc:title></dc:title>
      </cc:Work>
    </rdf:RDF>
  </metadata>
  <g
     inkscape:label="Capa 1"
     inkscape:groupmode="layer"
     id="layer1"
     transform="translate(286.20375,-36.498446)">
    <g
       transform="matrix(0.09333912,0,0,0.09333912,-286.25589,36.489331)"
       id="use13321"
       clip-path="url(#clip25)">
      <g
         style="clip-rule:nonzero"
         clip-path="url(#clip26)"
         id="g16234">
        <path
           inkscape:connector-curvature="0"
           style="fill:#61615e;fill-opacity:1;fill-rule:nonzero;stroke:none"
           d="M 9.746094,0.0976562 H 1.09375 c -0.296875,0 -0.535156,0.2421878 -0.535156,0.5390628 v 8.648437 c 0,0.296875 0.238281,0.539063 0.535156,0.539063 H 5.753906 V 6.058594 H 4.484375 V 4.589844 H 5.753906 V 3.507812 c 0,-1.257812 0.765625,-1.941406 1.886719,-1.941406 0.535156,0 0.996094,0.042969 1.132813,0.058594 V 2.9375 H 7.996094 c -0.609375,0 -0.726563,0.289062 -0.726563,0.714844 v 0.9375 H 8.722656 L 8.53125,6.058594 H 7.269531 v 3.765625 h 2.476563 c 0.296875,0 0.535156,-0.242188 0.535156,-0.539063 V 0.636719 c 0,-0.296875 -0.238281,-0.5390628 -0.535156,-0.5390628"
           id="path16232" />
      </g>
    </g>
    <g
       transform="matrix(0.35277779,0,0,0.35277779,-4763.98,-887.02662)"
       id="use13323"
       clip-path="url(#clip27)">
      <g
         style="clip-rule:nonzero"
         clip-path="url(#clip28)"
         id="g16305">
        <path
           inkscape:connector-curvature="0"
           style="fill:#61615e;fill-opacity:1;fill-rule:nonzero;stroke:none"
           d="M 9.664062,0.0976562 H 1.378906 c -0.398437,0 -0.71875,0.3164058 -0.71875,0.7031248 v 8.320313 c 0,0.390625 0.320313,0.703125 0.71875,0.703125 h 8.285156 c 0.398438,0 0.71875,-0.3125 0.71875,-0.703125 V 0.800781 c 0,-0.386719 -0.320312,-0.7031248 -0.71875,-0.7031248 M 3.542969,8.386719 H 2.101562 V 3.746094 H 3.542969 Z M 2.824219,3.109375 c -0.464844,0 -0.835938,-0.375 -0.835938,-0.835937 0,-0.460938 0.371094,-0.835938 0.835938,-0.835938 0.460937,0 0.835937,0.375 0.835937,0.835938 0,0.460937 -0.375,0.835937 -0.835937,0.835937 m 6.125,5.277344 H 7.503906 V 6.128906 c 0,-0.539062 -0.00781,-1.230468 -0.75,-1.230468 -0.75,0 -0.863281,0.585937 -0.863281,1.191406 V 8.386719 H 4.449219 V 3.746094 h 1.382812 v 0.632812 h 0.019531 c 0.191407,-0.363281 0.664063,-0.75 1.363282,-0.75 1.460937,0 1.734375,0.960938 1.734375,2.210938 z m 0,0"
           id="path16303" />
      </g>
    </g>
  </g>
</svg>
