<svg xmlns="http://www.w3.org/2000/svg" viewBox="0 0 19.37 19.37"><defs><style>.cls-1{fill:#a12338;}</style></defs><title>Flecha_Roja</title><g id="Capa_2" data-name="Capa 2"><g id="Diseño"><path class="cls-1" d="M9.68,0a9.69,9.69,0,1,0,9.69,9.68A9.69,9.69,0,0,0,9.68,0Zm0,18.3A8.62,8.62,0,1,1,18.3,9.68,8.62,8.62,0,0,1,9.68,18.3Z"/><path class="cls-1" d="M15.13,9.71a.53.53,0,0,0-.2-.41L11.08,5.45a.54.54,0,0,0-.76,0,.53.53,0,0,0,0,.75l3,3H4.55a.54.54,0,0,0,0,1.07h8.77l-3.19,3.19a.53.53,0,0,0,.38.91.53.53,0,0,0,.37-.15L15,10.1a.54.54,0,0,0,.16-.39Z"/></g></g></svg>