<?xml version="1.0" encoding="UTF-8" standalone="no"?>
<!-- Created with Inkscape (http://www.inkscape.org/) -->

<svg
   xmlns:dc="http://purl.org/dc/elements/1.1/"
   xmlns:cc="http://creativecommons.org/ns#"
   xmlns:rdf="http://www.w3.org/1999/02/22-rdf-syntax-ns#"
   xmlns:svg="http://www.w3.org/2000/svg"
   xmlns="http://www.w3.org/2000/svg"
   xmlns:sodipodi="http://sodipodi.sourceforge.net/DTD/sodipodi-0.dtd"
   xmlns:inkscape="http://www.inkscape.org/namespaces/inkscape"
   width="30.231117mm"
   height="12.821271mm"
   viewBox="0 0 30.231117 12.821271"
   version="1.1"
   id="svg9821"
   inkscape:version="0.92.4 5da689c313, 2019-01-14"
   sodipodi:docname="iberbrand latam.svg">
  <defs
     id="defs9815" />
  <sodipodi:namedview
     id="base"
     pagecolor="#ffffff"
     bordercolor="#666666"
     borderopacity="1.0"
     inkscape:pageopacity="0.0"
     inkscape:pageshadow="2"
     inkscape:zoom="2.8"
     inkscape:cx="49.138966"
     inkscape:cy="-32.159227"
     inkscape:document-units="mm"
     inkscape:current-layer="layer1"
     showgrid="false"
     fit-margin-top="0"
     fit-margin-left="0"
     fit-margin-right="0"
     fit-margin-bottom="0"
     inkscape:window-width="2510"
     inkscape:window-height="1385"
     inkscape:window-x="50"
     inkscape:window-y="27"
     inkscape:window-maximized="1" />
  <metadata
     id="metadata9818">
    <rdf:RDF>
      <cc:Work
         rdf:about="">
        <dc:format>image/svg+xml</dc:format>
        <dc:type
           rdf:resource="http://purl.org/dc/dcmitype/StillImage" />
        <dc:title></dc:title>
      </cc:Work>
    </rdf:RDF>
  </metadata>
  <g
     inkscape:label="Capa 1"
     inkscape:groupmode="layer"
     id="layer1"
     transform="translate(-90.717775,-142.4227)">
    <g
       id="g9761"
       transform="matrix(0.35277777,0,0,0.35277777,78.074021,-61.014318)">
      <path
         inkscape:connector-curvature="0"
         style="fill:#a11e33;fill-opacity:1;fill-rule:nonzero;stroke:none"
         d="m 86.21875,599.4375 -0.832031,-0.0156 c 0.136719,0.0195 0.277343,0.0469 0.417969,0.0937 0.183593,0.0273 0.28125,-0.0273 0.414062,-0.0781"
         id="path4550" />
      <path
         inkscape:connector-curvature="0"
         style="fill:#a11e33;fill-opacity:1;fill-rule:nonzero;stroke:none"
         d="m 84.617188,599.41016 -0.148438,-0.004 -0.125,0.0234 z m 0,0"
         id="path4552" />
      <path
         inkscape:connector-curvature="0"
         style="fill:#a11e33;fill-opacity:1;fill-rule:nonzero;stroke:none"
         d="m 83.164062,599.47656 c 0.257813,0.0117 0.503907,0.004 0.738282,-0.0117 -0.207032,-0.0195 -0.453125,-0.0195 -0.738282,0.0117"
         id="path4554" />
      <path
         inkscape:connector-curvature="0"
         style="fill:#a11e33;fill-opacity:1;fill-rule:nonzero;stroke:none"
         d="m 84.320312,599.53906 c -0.08984,-0.0391 -0.132812,-0.0781 0.01563,-0.10937 h 0.0078 l -0.4375,0.0351 c 0.152344,0.0156 0.296875,0.0391 0.414062,0.0742"
         id="path4556" />
      <path
         inkscape:connector-curvature="0"
         style="fill:#a11e33;fill-opacity:1;fill-rule:nonzero;stroke:none"
         d="m 84.320312,599.53906 c 0.08594,0.0352 0.222657,0.0703 0.269532,0.0937 -0.07813,-0.0351 -0.167969,-0.0664 -0.269532,-0.0937"
         id="path4558" />
      <path
         inkscape:connector-curvature="0"
         style="fill:#a11e33;fill-opacity:1;fill-rule:nonzero;stroke:none"
         d="m 84.957031,600.00781 c -0.144531,0.0352 -0.109375,-0.22656 -0.398437,-0.16797 -0.679688,0.0703 -1.261719,0.1875 -1.898438,0.1875 -0.285156,0.0625 -0.742187,-0.23047 -1.03125,-0.17187 -0.683594,0.0742 -2.417968,0.42578 -1.394531,0.41015 1.539063,-0.0391 2.542969,-0.10937 3.925781,-0.15625 1.121094,-0.10546 2.207032,-0.008 3.351563,-0.10156 0.328125,-0.0117 0.625,0.008 0.929687,0.0274 -0.398437,-0.0469 -0.04687,0.004 -0.5,-0.0352 -0.585937,-0.0742 -2.058594,-0.0469 -2.984375,0.008"
         id="path4560" />
      <path
         inkscape:connector-curvature="0"
         style="fill:#a11e33;fill-opacity:1;fill-rule:nonzero;stroke:none"
         d="m 89.292969,599.14844 c -0.144531,0.0312 -0.4375,0.082 -0.4375,0.082 -0.644531,-0.1836 -1.324219,-0.10938 -2.003907,-0.0391 l 0.304688,0.13281 c 0.386719,-0.0156 0.433594,-0.0898 0.08984,-0.14453 0.789062,0.15625 1.535156,0.18359 2.300781,0.15625 -0.05078,-0.0703 -0.03906,-0.15235 -0.253906,-0.1875"
         id="path4562" />
      <path
         inkscape:connector-curvature="0"
         style="fill:#a11e33;fill-opacity:1;fill-rule:nonzero;stroke:none"
         d="m 91.144531,599.31641 -0.445312,0.0195 0.01172,0.0195 0.449218,-0.0352 z m 0,0"
         id="path4564" />
      <path
         inkscape:connector-curvature="0"
         style="fill:#a11e33;fill-opacity:1;fill-rule:nonzero;stroke:none"
         d="m 73.238281,599.26172 c 0.105469,-0.008 0.234375,-0.0117 0.371094,-0.0234 L 72.125,599.20703 c 0.261719,0.125 0.6875,0.0859 1.113281,0.0547"
         id="path4566" />
      <path
         inkscape:connector-curvature="0"
         style="fill:#a11e33;fill-opacity:1;fill-rule:nonzero;stroke:none"
         d="m 43.726562,600.70312 c 0.203126,0.0273 0.480469,0.0664 0.847657,0.10938 -0.296875,-0.043 -0.578125,-0.0781 -0.847657,-0.10938"
         id="path4568" />
      <path
         inkscape:connector-curvature="0"
         style="fill:#a11e33;fill-opacity:1;fill-rule:nonzero;stroke:none"
         d="m 73.257812,599.26953 c -0.234374,0.0156 -0.480468,0.0234 -0.738281,0.008 0.285157,-0.0312 0.527344,-0.0312 0.738281,-0.008 l 0.425782,-0.0352 c -0.136719,0.0312 -0.09766,0.0703 -0.0078,0.10547 0.07422,0.0234 0.136719,0.0469 0.203125,0.0703 -0.0625,-0.0195 -0.140625,-0.043 -0.203125,-0.0703 -0.125,-0.0312 -0.257812,-0.0547 -0.417969,-0.0703 m -7.609374,-0.26172 c 0.0625,0 0.125,0.004 0.183593,0.008 -0.05859,0 -0.125,-0.004 -0.183593,-0.008 m 14.011718,0.41797 c 0.34375,0.0586 0.300782,0.13281 -0.08984,0.14844 l -0.296874,-0.12891 c 0.679687,-0.0742 1.359374,-0.14844 2,0.0391 0,0 0.292968,-0.0586 0.4375,-0.0859 0.214843,0.0351 0.207031,0.11718 0.25,0.1875 l 0.449218,-0.0234 c -0.316406,-0.12891 -1.316406,-0.29297 -1.316406,-0.29297 -1.929688,0.008 -3.746094,-0.004 -5.519531,-0.0273 -0.136719,0.0469 -0.230469,0.10937 -0.414063,0.0781 -0.140625,-0.0469 -0.28125,-0.0742 -0.417968,-0.0937 l -0.773438,-0.0117 -0.273438,0.0156 0.125,-0.0234 -1.765624,-0.0352 c -0.136719,0.008 -0.265626,0.0117 -0.371094,0.0195 -0.425782,0.0351 -0.851563,0.0703 -1.113282,-0.0547 l -0.316406,-0.008 0.0625,0.0234 -0.121094,-0.0273 -0.542968,-0.0117 c 0.01953,-0.0117 0.03906,-0.0234 0.05859,-0.0312 l -0.570313,-0.0156 c 0.05078,0.008 0.101563,0.0234 0.152344,0.0391 l -0.433594,-0.0117 c -0.152344,-0.004 -0.304687,-0.008 -0.460937,-0.0117 0.0078,-0.004 0.01172,-0.004 0.01953,-0.008 l -0.0625,0.008 c -0.5625,-0.0156 -1.125,-0.0312 -1.699219,-0.043 -0.234375,-0.0742 -0.460938,-0.1289 -0.460938,-0.1289 -0.882812,0.008 -1.734374,0.004 -2.5625,-0.008 0.05078,-0.0391 1.183594,-0.0586 -2.527343,-0.13672 -2.355469,-0.0508 -4.640625,-0.125 -6.886719,-0.21875 0.02734,-0.043 0.828125,-0.0586 -1.730469,-0.13671 C 50.25,598.33594 48.105469,598.22656 46,598.07422 c -2.402344,-0.17188 -2.644531,-0.14844 -2.574219,-0.1211 -0.02344,-0.004 -0.04687,-0.008 -0.07813,-0.0117 -1.628906,-0.25391 -4.652344,-0.10547 -6.222656,-0.0781 -2.101562,0.43359 -1.015625,1.54688 -0.914062,1.60938 0.59375,0.4375 1.128906,0.5625 1.789062,0.625 1.476562,0.52734 2.898438,0.27734 5.726562,0.60546 -1.242187,-0.17968 0.515626,-0.0937 4.308594,0.1211 1.101563,0.0664 2.273438,0.0195 3.589844,0.043 6.835938,0.33203 1.125,-0.0859 8.308594,-0.008 1.90625,0 3.578125,-0.24609 5.179687,-0.375 1.175781,-0.0469 2.425781,0.0781 3.378907,0.0781 1.492187,0 2.785156,-0.0937 4.019531,-0.20703 -1.382813,0.0469 -2.390625,0.11719 -3.925781,0.16015 -1.027344,0.0156 0.710937,-0.33593 1.390624,-0.40625 0.292969,-0.0625 0.75,0.22657 1.039063,0.16797 0.632813,0 1.210937,-0.11328 1.890625,-0.1875 0.289062,-0.0586 0.257812,0.19922 0.402344,0.17578 0.925781,-0.0625 1.636718,-0.39453 2.230468,-0.32421 0.449219,0.0391 0.851563,0.0781 1.246094,0.12109 0.25,0.0117 0.5,0.0234 0.761719,0.0117 l 0.507813,-0.0664 c 1.214843,-0.15234 2.617187,-0.28906 3.925781,-0.40234 l -0.01953,-0.0195 c -0.761719,0.0234 -1.503907,0 -2.300782,-0.16016"
         id="path4570" />
      <path
         inkscape:connector-curvature="0"
         style="fill:#a11e33;fill-opacity:1;fill-rule:nonzero;stroke:none"
         d="m 68.613281,599.05078 h -0.101562 l -0.08594,0.0234 z m 0,0"
         id="path4572" />
      <path
         inkscape:connector-curvature="0"
         style="fill:#a11e33;fill-opacity:1;fill-rule:nonzero;stroke:none"
         d="m 70.671875,598.82422 c 0.542969,0.15625 1.054687,0.18359 1.578125,0.15234 -0.03516,-0.0664 -0.02734,-0.15234 -0.175781,-0.1875 -0.09766,0.0312 -0.296875,0.0859 -0.296875,0.0859 -0.441406,-0.18359 -0.910156,-0.10938 -1.375,-0.0391 l 0.207031,0.13281 c 0.265625,-0.0156 0.296875,-0.0898 0.0625,-0.14453"
         id="path4574" />
      <path
         inkscape:connector-curvature="0"
         style="fill:#a11e33;fill-opacity:1;fill-rule:nonzero;stroke:none"
         d="m 72.566406,598.96094 -0.0078,-0.004 -0.308594,0.0234 0.01172,0.0195 z m 0,0"
         id="path4576" />
      <path
         inkscape:connector-curvature="0"
         style="fill:#a11e33;fill-opacity:1;fill-rule:nonzero;stroke:none"
         d="m 38.546875,582.28516 c 1.304687,0.1289 1.960937,0.69921 1.960937,1.71484 l -0.984374,5.39844 0.25,0.23828 v 0.73828 l -0.738282,0.73437 c -0.734375,0 -1.390625,-0.57031 -1.960937,-1.71093 0.1875,-4.73828 0.679687,-7.11328 1.472656,-7.11328"
         id="path4578" />
      <path
         inkscape:connector-curvature="0"
         style="fill:#a11e33;fill-opacity:1;fill-rule:nonzero;stroke:none"
         d="m 39.035156,576.89844 c 1.796875,0.41406 2.695313,0.90234 2.695313,1.46875 v 0.48828 c -0.164063,0.48828 -0.65625,0.73437 -1.472657,0.73437 h -0.484374 c -0.890626,0 -1.546876,-0.40625 -1.960938,-1.22265 v -0.73438 c 0,-0.28125 0.40625,-0.52734 1.222656,-0.73437"
         id="path4580" />
      <path
         inkscape:connector-curvature="0"
         style="fill:#a11e33;fill-opacity:1;fill-rule:nonzero;stroke:none"
         d="m 48.707031,584.88672 c -1.449219,1.38281 -2.175781,2.90625 -2.175781,4.57031 l 0.222656,0.21875 h 0.214844 c 1.195312,0 1.992188,-0.94531 2.394531,-2.82812 v -0.64844 c 0,-0.75391 -0.21875,-1.19141 -0.65625,-1.3125 m -4.5625,-7.82031 h 0.4375 c 0.789063,0 1.367188,0.36328 1.734375,1.08593 v 3.26172 l -0.21875,2.60938 h 0.21875 c 0.699219,-0.65235 1.421875,-1.09375 2.175782,-1.3086 1.8125,0 2.894531,1.16016 3.261718,3.48438 v 1.08594 c 0,2.08593 -1.378906,3.39453 -4.132812,3.91015 -1.105469,0 -1.976563,-0.42969 -2.613282,-1.30078 l -1.085937,-0.4375 -0.214844,-5.87109 v -0.8711 l 0.214844,-1.30078 -0.214844,-1.08594 0.214844,-0.21093 v -0.22657 l -0.214844,-0.86328 h 0.214844 l -0.214844,-0.22265 v -1.30078 z m 0,0"
         id="path4582" />
      <path
         inkscape:connector-curvature="0"
         style="fill:#a11e33;fill-opacity:1;fill-rule:nonzero;stroke:none"
         d="m 56.605469,584.67578 v 0.23047 c 1.550781,-0.54688 2.328125,-1.01172 2.328125,-1.39453 v -0.23047 h -0.230469 c -0.855469,0 -1.554687,0.46484 -2.097656,1.39453 m 1.625,-3.72266 c 1.703125,0 2.792969,0.92969 3.261719,2.78907 v 0.23047 c 0,1.75781 -1.9375,2.92187 -5.820313,3.49609 v 0.22656 c 0,0.9375 0.390625,1.40235 1.164063,1.40235 l 4.425781,-0.92969 0.460937,1.16015 -1.628906,1.16407 L 58,590.95703 h -1.164062 c -2.089844,0 -3.328126,-1.08984 -3.722657,-3.26172 v -1.39453 c 0.785157,-3.56641 2.492188,-5.34766 5.117188,-5.34766"
         id="path4584" />
      <path
         inkscape:connector-curvature="0"
         style="fill:#a11e33;fill-opacity:1;fill-rule:nonzero;stroke:none"
         d="m 69.066406,579.13672 c 0.832032,0 1.371094,0.3125 1.625,0.9375 v 0.22656 c -2.480468,2.42188 -3.722656,4.75391 -3.722656,6.98438 -0.210938,0 -0.367188,0.69921 -0.460938,2.09765 -0.207031,0 -0.363281,0.54688 -0.472656,1.63281 l -0.691406,0.23047 c -0.832031,-0.0586 -1.535156,-0.4414 -2.097656,-1.16406 v -0.46094 h 0.234375 l -0.234375,-3.5 v -4.42578 l 0.464844,-0.46094 h 0.46875 c 0.558593,0 1.179687,0.3125 1.855468,0.9336 0.542969,-2.01953 1.554688,-3.03125 3.03125,-3.03125"
         id="path4586" />
      <path
         inkscape:connector-curvature="0"
         style="fill:#a11e33;fill-opacity:1;fill-rule:nonzero;stroke:none"
         d="m 77.394531,584.88672 c -1.453125,1.38281 -2.175781,2.90625 -2.175781,4.57031 l 0.222656,0.21875 h 0.214844 c 1.191406,0 1.992188,-0.94531 2.394531,-2.82812 v -0.64844 c 0,-0.75391 -0.21875,-1.19141 -0.65625,-1.3125 m -4.5625,-7.82031 h 0.433594 c 0.789063,0 1.367187,0.36328 1.738281,1.08593 v 3.26172 l -0.21875,2.60938 h 0.21875 c 0.699219,-0.65235 1.421875,-1.09375 2.171875,-1.3086 1.8125,0 2.898438,1.16016 3.261719,3.48438 v 1.08594 c 0,2.08593 -1.378906,3.39453 -4.132812,3.91015 -1.101563,0 -1.972657,-0.42969 -2.609376,-1.30078 l -1.085937,-0.4375 -0.214844,-5.87109 v -0.8711 l 0.214844,-1.30078 -0.214844,-1.08594 0.214844,-0.21093 v -0.22657 l -0.214844,-0.86328 h 0.214844 l -0.214844,-0.22265 v -1.30078 z m 0,0"
         id="path4588" />
      <path
         inkscape:connector-curvature="0"
         style="fill:#a11e33;fill-opacity:1;fill-rule:nonzero;stroke:none"
         d="m 88.003906,579.13672 c 0.832032,0 1.375,0.3125 1.625,0.9375 v 0.22656 c -2.480468,2.42188 -3.71875,4.75391 -3.71875,6.98438 -0.214844,0 -0.367187,0.69921 -0.464844,2.09765 -0.207031,0 -0.363281,0.54688 -0.472656,1.63281 l -0.691406,0.23047 c -0.835938,-0.0586 -1.53125,-0.4414 -2.097656,-1.16406 v -0.46094 h 0.230468 l -0.230468,-3.5 v -4.42578 l 0.460937,-0.46094 h 0.472657 c 0.558593,0 1.179687,0.3125 1.855468,0.9336 0.542969,-2.01953 1.554688,-3.03125 3.03125,-3.03125"
         id="path4590" />
      <path
         inkscape:connector-curvature="0"
         style="fill:#a11e33;fill-opacity:1;fill-rule:nonzero;stroke:none"
         d="m 92.667969,585.57031 c -0.816407,1.25391 -1.242188,2.46094 -1.273438,3.63281 l 0.210938,0.21094 h 0.214843 l 1.917969,-2.34375 c -0.429687,0 -0.644531,-0.5 -0.644531,-1.5 z m 0.855469,-3.83984 h 0.640624 c 0.855469,0.57422 1.285157,1.29297 1.285157,2.13672 v 0.63672 c 0.625,0 1.121093,0.35937 1.488281,1.0664 L 96.722656,586.85547 96.9375,587.5 h -0.214844 c 0,1.09766 0.714844,1.73437 2.140625,1.91406 v 0.64453 l -0.429687,0.42578 h -1.070313 c -0.628906,0 -1.414062,-0.42578 -2.34375,-1.28125 -1.011719,1.28125 -1.9375,1.92579 -2.78125,1.92579 h -0.417969 c -1.171874,0 -1.953124,-0.5 -2.355468,-1.4961 v -1.70703 c 1.296875,-4.12891 2.648437,-6.19531 4.058594,-6.19531"
         id="path4592" />
      <path
         inkscape:connector-curvature="0"
         style="fill:#a11e33;fill-opacity:1;fill-rule:nonzero;stroke:none"
         d="m 106.05078,582.22656 c 0.78906,0 1.5,0.55469 2.13281,1.66016 l -0.23828,4.49609 v 0.46875 l 0.70703,1.66016 -0.46875,0.47265 c -1.89453,-0.21875 -2.84375,-1.08593 -2.84375,-2.60156 v -2.60547 c -1.48046,1.46875 -2.50781,3.20313 -3.07031,5.20703 l -0.71094,0.23829 c -1.22265,-0.4336 -1.929684,-0.90625 -2.132809,-1.42188 v -0.46875 h 0.242188 l -0.242188,-1.66016 v -4.49609 c 0.160157,-0.47266 0.636719,-0.70703 1.421879,-0.70703 1.10156,0.51172 1.65234,1.22266 1.65234,2.12891 1.45313,-1.57813 2.63672,-2.3711 3.55078,-2.3711"
         id="path4594" />
      <path
         inkscape:connector-curvature="0"
         style="fill:#a11e33;fill-opacity:1;fill-rule:nonzero;stroke:none"
         d="m 111.82031,589.33984 0.19532,0.20703 h 0.40234 l 2.61719,-1.01171 v -0.40235 c -0.53516,0 -0.80078,-0.80469 -0.80078,-2.41406 -0.26954,0 -0.40235,-0.26953 -0.40235,-0.80469 -1.34375,1.2461 -2.01172,2.71875 -2.01172,4.42578 m 5.02344,-12.66797 c 0.80469,0.32422 1.20703,0.72657 1.20703,1.20704 -0.9375,4.54687 -1.40625,7.76562 -1.40625,9.65625 l 0.40235,0.40234 -0.20313,0.19531 0.20313,0.20703 v 0.19532 c -1.41407,1.875 -2.75391,2.8164 -4.01954,2.8164 -2.28125,0 -3.42187,-0.9414 -3.42187,-2.8164 0.71484,-3.61719 1.85937,-5.42579 3.42187,-5.42579 0.5,0 1.03907,0.19922 1.60938,0.60157 h 0.19531 c 0.53516,-4.69532 1.07031,-7.03907 1.60938,-7.03907 z m 0,0"
         id="path4596" />
      <path
         inkscape:connector-curvature="0"
         style="fill:#a11e33;fill-opacity:1;fill-rule:nonzero;stroke:none"
         d="m 119.89063,589.57422 h 0.15625 c 0.17968,0 0.32421,-0.0586 0.32421,-0.20313 0,-0.1289 -0.0977,-0.21484 -0.29687,-0.21484 -0.0898,0 -0.14844,0.0117 -0.18359,0.0195 z m -0.004,0.79297 h -0.32422 v -1.39453 c 0.125,-0.0274 0.30469,-0.043 0.53516,-0.043 0.26172,0 0.38281,0.043 0.48437,0.10156 0.0781,0.0586 0.13672,0.16797 0.13672,0.30469 0,0.15234 -0.12109,0.27343 -0.28906,0.32422 v 0.0156 c 0.13281,0.0508 0.21094,0.15234 0.2539,0.34375 0.043,0.20703 0.0664,0.29297 0.10157,0.34766 h -0.34766 c -0.043,-0.0547 -0.0664,-0.17969 -0.10937,-0.34375 -0.0273,-0.15235 -0.11329,-0.21875 -0.28907,-0.21875 h -0.15234 z m -0.85938,-0.73438 c 0,0.6211 0.45704,1.11719 1.08594,1.11719 0.61328,0 1.0625,-0.49609 1.0625,-1.10938 0,-0.62109 -0.44922,-1.12109 -1.07031,-1.12109 -0.62109,0 -1.07813,0.5 -1.07813,1.11328 m 2.50782,0 c 0,0.79297 -0.6211,1.41406 -1.42969,1.41406 -0.80078,0 -1.4375,-0.62109 -1.4375,-1.41406 0,-0.77344 0.63672,-1.39062 1.4375,-1.39062 0.80859,0 1.42969,0.61718 1.42969,1.39062"
         id="path4598" />
      <path
         inkscape:connector-curvature="0"
         style="fill:#61615e;fill-opacity:1;fill-rule:nonzero;stroke:none"
         d="m 95.710938,600.73437 c 0.04687,0.0625 0.06641,0.13672 0.06641,0.21875 v 0.0352 c 0,0.0234 -0.0039,0.0508 -0.01172,0.082 -0.04297,0.17969 -0.195313,0.30078 -0.457031,0.36328 -0.148438,0.0352 -0.378906,0.0547 -0.695313,0.0586 -0.09766,0 -0.164062,0.004 -0.199219,0.004 -0.496093,0.0391 -1.074218,0.14453 -1.734374,0.31641 -0.253907,0.0703 -0.453126,0.12109 -0.59375,0.15234 -0.04297,0.0117 -0.125,0.0352 -0.25,0.0742 -0.363282,0.10938 -0.640626,0.16797 -0.832032,0.16797 -0.02734,0 -0.05078,-0.004 -0.07031,-0.004 -0.363282,-0.0312 -0.542969,-0.26171 -0.542969,-0.68359 v -0.008 c 0,-0.17188 -0.01563,-0.45703 -0.05078,-0.85156 -0.03125,-0.35938 -0.05078,-0.61329 -0.05469,-0.76172 v -0.35547 c 0,-0.58985 0.01563,-1.1836 0.04687,-1.77735 0,-0.0312 0.0039,-0.0742 0.0039,-0.13671 0,-0.0625 -0.0039,-0.13672 -0.0039,-0.23047 v -0.10157 c 0,-0.39453 0.01172,-0.74218 0.03906,-1.04296 0.05859,-0.6836 0.1875,-1.1211 0.386718,-1.30079 0.09375,-0.0859 0.195313,-0.125 0.3125,-0.125 0.01563,0 0.03125,0 0.04688,0.004 0.01562,0 0.03516,0 0.05078,0.004 0.171875,0.0156 0.300781,0.0859 0.386719,0.20703 0.07031,0.0977 0.101562,0.24609 0.101562,0.44922 0,0.0547 0,0.11328 -0.0039,0.17578 -0.01953,0.20703 -0.07031,0.45312 -0.148438,0.74609 -0.03516,0.14453 -0.05859,0.24219 -0.06641,0.29297 -0.03125,0.17188 -0.05859,0.37109 -0.07813,0.59375 -0.02734,0.33203 -0.04297,0.71484 -0.04297,1.15234 0,0.4375 0.01563,0.92969 0.04297,1.47266 0.02344,0.39453 0.03906,0.69531 0.04687,0.89844 0.210938,-0.0312 0.457031,-0.0586 0.734375,-0.0859 0.402344,-0.0352 0.789063,-0.0977 1.160156,-0.17969 0.398438,-0.0937 0.796875,-0.13672 1.195313,-0.13672 0.152344,0 0.300781,0.004 0.453125,0.0195 0.394531,0.0351 0.648437,0.13281 0.761719,0.29296"
         id="path4600" />
      <path
         inkscape:connector-curvature="0"
         style="fill:#61615e;fill-opacity:1;fill-rule:nonzero;stroke:none"
         d="m 98.535156,599.58203 c -0.01563,-0.008 -0.03125,-0.0156 -0.05078,-0.0156 -0.07813,0 -0.1875,0.0781 -0.328125,0.23046 -0.179688,0.19922 -0.359375,0.46094 -0.539062,0.79297 -0.164063,0.3125 -0.261719,0.54297 -0.285157,0.69922 0.25,-0.0703 0.507813,-0.30078 0.78125,-0.70312 0.269531,-0.38672 0.410157,-0.72266 0.421875,-1.00391 m 1.808593,1.72656 c 0.17188,0.24219 0.25781,0.44141 0.25781,0.59766 -0.0195,0.12109 -0.0937,0.22656 -0.22265,0.31641 -0.125,0.0937 -0.25782,0.14062 -0.39844,0.14062 -0.117188,0 -0.214844,-0.0391 -0.292969,-0.10937 -0.15625,-0.14454 -0.304688,-0.42969 -0.4375,-0.85157 -0.101562,-0.32812 -0.199219,-0.55468 -0.296875,-0.67578 -0.02344,0.0312 -0.05469,0.0859 -0.09766,0.15235 -0.261719,0.41015 -0.476563,0.71093 -0.644531,0.89453 -0.285157,0.3125 -0.585938,0.5039 -0.902344,0.57422 -0.08984,0.0195 -0.179688,0.0273 -0.265625,0.0273 -0.246094,0 -0.445313,-0.0781 -0.597657,-0.23438 -0.152343,-0.15625 -0.238281,-0.37109 -0.253906,-0.64453 0,-0.54297 0.347656,-1.21484 1.042969,-2.01172 0.890625,-0.72265 1.5625,-1.08593 2.015625,-1.08593 h 0.03516 c 0.183594,0 0.328125,0.17578 0.433594,0.52343 0.05859,0.19532 0.117188,0.50391 0.167969,0.92969 0.01953,0.14844 0.03125,0.23828 0.03906,0.27344 0.0078,0.0234 0.01953,0.0859 0.03906,0.1875 0.06641,0.33203 0.12891,0.56641 0.19532,0.71484 0.0273,0.0625 0.0898,0.15625 0.18359,0.28125"
         id="path4602" />
      <path
         inkscape:connector-curvature="0"
         style="fill:#61615e;fill-opacity:1;fill-rule:nonzero;stroke:none"
         d="m 105.69922,598.66016 c 0.043,0.0781 0.0625,0.15234 0.0625,0.22265 0,0.0547 -0.0117,0.10938 -0.0352,0.15625 -0.0977,0.19531 -0.34765,0.33203 -0.74609,0.40625 -0.24609,0.043 -0.62109,0.0859 -1.12891,0.1211 l -0.14453,0.0117 c 0,0.0195 -0.004,0.0664 -0.008,0.14454 -0.0195,0.20312 -0.0273,0.36328 -0.0273,0.47656 0,0.0469 0,0.0898 0.004,0.12109 0.0273,0.26172 0.043,0.59375 0.0508,0.99219 v 0.16406 c 0,0.55469 -0.0469,0.84766 -0.14062,0.87891 -0.008,0.0156 -0.0703,0.0195 -0.19141,0.0195 -0.28906,0 -0.44922,-0.0117 -0.47265,-0.0352 -0.20313,-0.19922 -0.30469,-0.63672 -0.30469,-1.30859 0,-0.20703 0.008,-0.43359 0.0273,-0.67969 0.004,-0.0469 0.004,-0.0898 0.004,-0.13281 0,-0.21094 -0.0391,-0.35938 -0.1211,-0.44922 -0.0703,-0.0742 -0.22265,-0.11328 -0.46093,-0.11328 H 102 c -0.0391,0 -0.0742,0.004 -0.10937,0.004 -0.16016,0 -0.28516,-0.0156 -0.3711,-0.043 -0.16406,-0.0586 -0.28515,-0.1836 -0.35937,-0.36719 v -0.0234 c 0,-0.0898 0.0312,-0.16406 0.0898,-0.22265 0.13672,-0.14063 0.39063,-0.21094 0.75781,-0.21094 0.082,0 0.15235,0.004 0.20703,0.008 0.0469,0.008 0.0898,0.008 0.12891,0.008 0.0937,0 0.17969,-0.0156 0.26563,-0.0508 -0.0312,-0.32031 -0.043,-0.63281 -0.043,-0.9414 0,-0.23829 0.008,-0.47657 0.0234,-0.70704 0.0586,-0.70703 0.19141,-1.17578 0.40235,-1.41015 0.10547,-0.11719 0.22656,-0.17578 0.37109,-0.17578 h 0.0352 c 0.0586,0 0.10937,0.0234 0.15234,0.0703 0.0977,0.10156 0.14844,0.37891 0.14844,0.83203 0,0.26563 -0.0195,0.58984 -0.0508,0.97656 -0.0234,0.25391 -0.0352,0.41407 -0.0391,0.49219 0,0.0859 -0.004,0.20313 -0.004,0.33984 v 0.4336 c 0,0.0391 0.0742,0.0586 0.22266,0.0586 0.0312,0 0.0664,0 0.10546,-0.004 0.22266,-0.0117 0.50391,-0.0508 0.83594,-0.11719 0.0195,-0.004 0.0547,-0.0117 0.11328,-0.0273 0.20703,-0.0547 0.36328,-0.082 0.47266,-0.082 0.17187,0 0.28906,0.0547 0.34375,0.16407"
         id="path4604" />
      <path
         inkscape:connector-curvature="0"
         style="fill:#61615e;fill-opacity:1;fill-rule:nonzero;stroke:none"
         d="m 108.42578,599.58203 c -0.0117,-0.008 -0.0312,-0.0156 -0.0508,-0.0156 -0.0781,0 -0.1875,0.0781 -0.32812,0.23046 -0.17969,0.19922 -0.35938,0.46094 -0.53907,0.79297 -0.16406,0.3125 -0.25781,0.54297 -0.28515,0.69922 0.25,-0.0703 0.51172,-0.30078 0.78515,-0.70312 0.26563,-0.38672 0.40625,-0.72266 0.41797,-1.00391 m 1.8086,1.72656 c 0.17187,0.24219 0.26171,0.44141 0.26171,0.59766 -0.0234,0.12109 -0.0977,0.22656 -0.22656,0.31641 -0.125,0.0937 -0.25781,0.14062 -0.39844,0.14062 -0.11718,0 -0.21484,-0.0391 -0.28906,-0.10937 -0.16015,-0.14454 -0.30859,-0.42969 -0.4414,-0.85157 -0.10157,-0.32812 -0.19922,-0.55468 -0.29688,-0.67578 -0.0234,0.0312 -0.0547,0.0859 -0.0977,0.15235 -0.26171,0.41015 -0.47656,0.71093 -0.64062,0.89453 -0.28906,0.3125 -0.58984,0.5039 -0.90625,0.57422 -0.0898,0.0195 -0.17969,0.0273 -0.26172,0.0273 -0.25,0 -0.44922,-0.0781 -0.60156,-0.23438 -0.15235,-0.15625 -0.23828,-0.37109 -0.25391,-0.64453 0,-0.54297 0.34766,-1.21484 1.04297,-2.01172 0.89063,-0.72265 1.5625,-1.08593 2.01563,-1.08593 h 0.0391 c 0.18359,0 0.32812,0.17578 0.42969,0.52343 0.0625,0.19532 0.11718,0.50391 0.17187,0.92969 0.0156,0.14844 0.0273,0.23828 0.0352,0.27344 0.008,0.0234 0.0195,0.0859 0.0391,0.1875 0.0664,0.33203 0.13281,0.56641 0.19531,0.71484 0.0312,0.0625 0.0898,0.15625 0.1836,0.28125"
         id="path4606" />
      <path
         inkscape:connector-curvature="0"
         style="fill:#61615e;fill-opacity:1;fill-rule:nonzero;stroke:none"
         d="m 115.21484,598.45703 c 0.46875,0.0742 0.85547,0.57422 1.16407,1.5 0.0781,0.23047 0.18359,0.61328 0.32031,1.14063 0.12109,0.45703 0.21484,0.77343 0.28125,0.9414 0,0.20703 -0.0859,0.3125 -0.26172,0.3125 -0.0547,0 -0.11328,-0.0117 -0.18359,-0.0312 -0.26953,-0.0742 -0.46094,-0.1914 -0.57422,-0.35156 -0.125,-0.17578 -0.24219,-0.46875 -0.34766,-0.87891 -0.11328,-0.42578 -0.22265,-0.72265 -0.32422,-0.88672 0,0.004 -0.0508,0.1875 -0.15625,0.55079 -0.082,0.28906 -0.16015,0.52734 -0.23437,0.71484 -0.23438,0.59375 -0.48828,0.89453 -0.77344,0.90625 h -0.008 c -0.22266,0 -0.39844,-0.38281 -0.52344,-1.14453 -0.0898,-0.52735 -0.13281,-0.79297 -0.13281,-0.80078 -0.0469,-0.24219 -0.10547,-0.36328 -0.17188,-0.36328 0,0.0195 -0.17968,0.53125 -0.54297,1.53906 -0.11328,0.32422 -0.24218,0.53906 -0.3789,0.64453 -0.0781,0.0547 -0.15625,0.082 -0.24219,0.082 -0.11719,0 -0.24609,-0.0547 -0.38672,-0.16016 h 0.004 c 0.0117,0 0.0195,-0.11718 0.0195,-0.34765 0,-0.32031 -0.0156,-0.86328 -0.0391,-1.62891 v -0.0117 c 0,-0.10156 0.0312,-0.21093 0.0898,-0.3164 0.0625,-0.11719 0.0937,-0.22657 0.0937,-0.32813 0,-0.1289 0.0859,-0.20312 0.26172,-0.21484 0.21094,-0.0117 0.32031,-0.0195 0.32422,-0.0195 0.0625,-0.0625 0.14844,-0.16016 0.25781,-0.29688 0.10547,-0.1289 0.1875,-0.21875 0.24219,-0.26953 0.10547,-0.0937 0.21484,-0.14062 0.33594,-0.14062 0.0977,0 0.20312,0.0351 0.3164,0.10156 0.15235,0.0898 0.29297,0.3789 0.41797,0.86328 0.16016,0.60937 0.24609,0.92969 0.25781,0.96094 0.0312,-0.0664 0.15235,-0.45703 0.35547,-1.17188 0.14453,-0.49609 0.32422,-0.79297 0.53906,-0.89453"
         id="path4608" />
      <path
         inkscape:connector-curvature="0"
         style="fill:#a11e33;fill-opacity:1;fill-rule:nonzero;stroke:none"
         d="m 110.17188,610.68359 c 0,0.44141 -0.35938,0.80078 -0.80079,0.80078 -0.44531,0 -0.80468,-0.35937 -0.80468,-0.80078 0,-0.44531 0.35937,-0.80468 0.80468,-0.80468 0.44141,0 0.80079,0.35937 0.80079,0.80468"
         id="path4610" />
      <path
         inkscape:connector-curvature="0"
         style="fill:#a11e33;fill-opacity:1;fill-rule:nonzero;stroke:none"
         d="m 48.550781,610.68359 c 0,0.44141 -0.359375,0.80078 -0.800781,0.80078 -0.445312,0 -0.804688,-0.35937 -0.804688,-0.80078 0,-0.44531 0.359376,-0.80468 0.804688,-0.80468 0.441406,0 0.800781,0.35937 0.800781,0.80468"
         id="path4612" />
      <path
         inkscape:connector-curvature="0"
         style="fill:#61615e;fill-opacity:1;fill-rule:nonzero;stroke:none"
         d="m 53.125,607.80859 h 0.550781 v 5.16407 H 53.125 Z m 0,0"
         id="path4614" />
      <path
         inkscape:connector-curvature="0"
         style="fill:#61615e;fill-opacity:1;fill-rule:nonzero;stroke:none"
         d="M 57.476562,608.30078 H 56.15625 v 2.05078 h 1.320312 c 0.648438,0 1.097657,-0.34765 1.097657,-1.02734 0,-0.6836 -0.449219,-1.02344 -1.097657,-1.02344 m 0.05078,2.54688 H 56.15625 v 2.125 h -0.550781 v -5.16407 h 1.921875 c 0.945312,0 1.597656,0.58594 1.597656,1.51563 0,0.92969 -0.652344,1.52344 -1.597656,1.52344"
         id="path4616" />
      <path
         inkscape:connector-curvature="0"
         style="fill:#61615e;fill-opacity:1;fill-rule:nonzero;stroke:none"
         d="m 64.335938,608.59766 -0.972657,2.72656 h 1.929688 z m 1.53125,4.375 -0.414063,-1.16797 h -2.253906 l -0.414063,1.16797 h -0.585937 l 1.898437,-5.16407 H 64.5625 l 1.890625,5.16407 z m 0,0"
         id="path4618" />
      <path
         inkscape:connector-curvature="0"
         style="fill:#61615e;fill-opacity:1;fill-rule:nonzero;stroke:none"
         d="m 69.242188,608.30078 v 4.67188 h -0.550782 v -4.67188 h -1.492187 v -0.49219 h 3.539062 v 0.49219 z m 0,0"
         id="path4620" />
      <path
         inkscape:connector-curvature="0"
         style="fill:#61615e;fill-opacity:1;fill-rule:nonzero;stroke:none"
         d="m 73.65625,608.30078 v 4.67188 h -0.550781 v -4.67188 h -1.496094 v -0.49219 h 3.539063 v 0.49219 z m 0,0"
         id="path4622" />
      <path
         inkscape:connector-curvature="0"
         style="fill:#61615e;fill-opacity:1;fill-rule:nonzero;stroke:none"
         d="m 79.054688,608.62891 c -0.222657,-0.23438 -0.550782,-0.3711 -0.890626,-0.3711 -0.339843,0 -0.667968,0.13672 -0.890624,0.3711 -0.328126,0.33203 -0.363282,0.67968 -0.363282,1.76171 0,1.07813 0.03516,1.42969 0.363282,1.76172 0.222656,0.23047 0.550781,0.3711 0.890624,0.3711 0.339844,0 0.667969,-0.14063 0.890626,-0.3711 0.328124,-0.33203 0.363281,-0.68359 0.363281,-1.76172 0,-1.08203 -0.03516,-1.42968 -0.363281,-1.76171 m 0.429687,3.85156 c -0.347656,0.34765 -0.804687,0.53515 -1.320313,0.53515 -0.515624,0 -0.972656,-0.1875 -1.320312,-0.53515 -0.484375,-0.48828 -0.484375,-0.9961 -0.484375,-2.08985 0,-1.09765 0,-1.60546 0.484375,-2.08984 0.347656,-0.34766 0.804688,-0.53516 1.320312,-0.53516 0.515626,0 0.972657,0.1875 1.320313,0.53516 0.484375,0.48438 0.484375,0.99219 0.484375,2.08984 0,1.09375 0,1.60157 -0.484375,2.08985"
         id="path4624" />
      <path
         inkscape:connector-curvature="0"
         style="fill:#61615e;fill-opacity:1;fill-rule:nonzero;stroke:none"
         d="m 83.636719,608.30078 h -1.378907 v 1.89453 h 1.378907 c 0.601562,0 1.027343,-0.3125 1.027343,-0.94531 0,-0.62891 -0.425781,-0.94922 -1.027343,-0.94922 m 1.035156,4.67188 L 83.5,610.67969 h -1.242188 v 2.29297 h -0.550781 v -5.16407 H 83.6875 c 0.898438,0 1.53125,0.54297 1.53125,1.4375 0,0.75391 -0.457031,1.2461 -1.125,1.38282 l 1.226562,2.34375 z m 0,0"
         id="path4626" />
      <path
         inkscape:connector-curvature="0"
         style="fill:#61615e;fill-opacity:1;fill-rule:nonzero;stroke:none"
         d="m 90.195312,612.97266 -2.738281,-4.14063 v 4.14063 H 86.90625 v -5.16407 h 0.519531 l 2.742188,4.125 v -4.125 h 0.550781 v 5.16407 z m 0,0"
         id="path4628" />
      <path
         inkscape:connector-curvature="0"
         style="fill:#61615e;fill-opacity:1;fill-rule:nonzero;stroke:none"
         d="m 92.652344,612.97266 v -5.16407 h 3.207031 v 0.49219 h -2.65625 v 1.82031 h 2.265625 v 0.49219 h -2.265625 v 1.86719 h 2.65625 v 0.49219 z m 0,0"
         id="path4630" />
      <path
         inkscape:connector-curvature="0"
         style="fill:#61615e;fill-opacity:1;fill-rule:nonzero;stroke:none"
         d="m 98.84375,610.83984 v 2.13282 h -0.550781 v -2.13282 l -1.539063,-3.03125 h 0.597656 l 1.214844,2.47266 1.207032,-2.47266 h 0.593752 z m 0,0"
         id="path4632" />
      <path
         inkscape:connector-curvature="0"
         style="fill:#61615e;fill-opacity:1;fill-rule:nonzero;stroke:none"
         d="m 102.9375,613.01562 c -0.77734,0 -1.28516,-0.19531 -1.76953,-0.67968 l 0.375,-0.37891 c 0.42969,0.42578 0.82812,0.56641 1.40625,0.56641 0.75781,0 1.22266,-0.35547 1.22266,-0.95703 0,-0.26954 -0.082,-0.50391 -0.25,-0.64844 -0.16407,-0.14453 -0.29688,-0.1875 -0.67188,-0.2461 l -0.60547,-0.0937 c -0.40234,-0.0664 -0.72265,-0.19531 -0.94922,-0.39062 -0.26172,-0.23438 -0.39062,-0.55078 -0.39062,-0.96484 0,-0.87891 0.63281,-1.45704 1.65625,-1.45704 0.65625,0 1.09375,0.16407 1.53515,0.56641 l -0.35546,0.35547 c -0.32032,-0.29297 -0.66016,-0.44531 -1.20313,-0.44531 -0.69141,0 -1.08984,0.38672 -1.08984,0.95703 0,0.2539 0.0742,0.45703 0.23437,0.59765 0.16016,0.13672 0.42578,0.23829 0.69531,0.28125 l 0.56641,0.0859 c 0.48438,0.0742 0.72656,0.17578 0.94141,0.36328 0.28125,0.23828 0.4375,0.59375 0.4375,1.02344 0,0.90625 -0.71094,1.46484 -1.78516,1.46484"
         id="path4634" />
    </g>
  </g>
</svg>
