<?xml version="1.0" encoding="UTF-8" standalone="no"?>
<!-- Created with Inkscape (http://www.inkscape.org/) -->

<svg
   xmlns:dc="http://purl.org/dc/elements/1.1/"
   xmlns:cc="http://creativecommons.org/ns#"
   xmlns:rdf="http://www.w3.org/1999/02/22-rdf-syntax-ns#"
   xmlns:svg="http://www.w3.org/2000/svg"
   xmlns="http://www.w3.org/2000/svg"
   xmlns:sodipodi="http://sodipodi.sourceforge.net/DTD/sodipodi-0.dtd"
   xmlns:inkscape="http://www.inkscape.org/namespaces/inkscape"
   width="0.90786892mm"
   height="0.90786892mm"
   viewBox="0 0 0.90786892 0.90786892"
   version="1.1"
   id="svg15662"
   inkscape:version="0.92.4 5da689c313, 2019-01-14"
   sodipodi:docname="instagram.svg">
  <defs
     id="defs15656">
    <clipPath
       id="clip25">
      <rect
         id="rect10648"
         height="10"
         width="11"
         y="0"
         x="0" />
    </clipPath>
    <clipPath
       id="clip26">
      <path
         id="path10645"
         d="M 0.558594,0.0976562 H 10.28125 V 9.824219 H 0.558594 Z m 0,0"
         inkscape:connector-curvature="0" />
    </clipPath>
    <clipPath
       id="clipPath15649">
      <rect
         id="rect15647"
         height="10"
         width="11"
         y="0"
         x="0" />
    </clipPath>
    <clipPath
       id="clipPath15653">
      <path
         id="path15651"
         d="M 0.558594,0.0976562 H 10.28125 V 9.824219 H 0.558594 Z m 0,0"
         inkscape:connector-curvature="0" />
    </clipPath>
    <clipPath
       id="clip27">
      <rect
         id="rect10659"
         height="10"
         width="11"
         y="0"
         x="0" />
    </clipPath>
    <clipPath
       id="clip28">
      <path
         id="path10656"
         d="m 0.660156,0.0976562 h 9.726563 V 9.824219 H 0.660156 Z m 0,0"
         inkscape:connector-curvature="0" />
    </clipPath>
    <clipPath
       id="clipPath16271">
      <rect
         id="rect16269"
         height="10"
         width="11"
         y="0"
         x="0" />
    </clipPath>
    <clipPath
       id="clipPath16275">
      <path
         id="path16273"
         d="m 0.660156,0.0976562 h 9.726563 V 9.824219 H 0.660156 Z m 0,0"
         inkscape:connector-curvature="0" />
    </clipPath>
    <clipPath
       id="clip29">
      <rect
         id="rect10670"
         height="10"
         width="11"
         y="0"
         x="0" />
    </clipPath>
    <clipPath
       id="clip30">
      <path
         id="path10667"
         d="m 0.761719,0.0976562 h 9.726562 V 9.824219 H 0.761719 Z m 0,0"
         inkscape:connector-curvature="0" />
    </clipPath>
    <clipPath
       id="clipPath16342">
      <rect
         id="rect16340"
         height="10"
         width="11"
         y="0"
         x="0" />
    </clipPath>
    <clipPath
       id="clipPath16346">
      <path
         id="path16344"
         d="m 0.761719,0.0976562 h 9.726562 V 9.824219 H 0.761719 Z m 0,0"
         inkscape:connector-curvature="0" />
    </clipPath>
    <clipPath
       id="clip31">
      <rect
         id="rect10681"
         height="4"
         width="3"
         y="0"
         x="0" />
    </clipPath>
    <clipPath
       id="clip32">
      <path
         id="path10678"
         d="M 0.65625,0.84375 H 2.894531 V 3.082031 H 0.65625 Z m 0,0"
         inkscape:connector-curvature="0" />
    </clipPath>
    <clipPath
       id="clipPath16708">
      <rect
         id="rect16706"
         height="4"
         width="3"
         y="0"
         x="0" />
    </clipPath>
    <clipPath
       id="clipPath16712">
      <path
         id="path16710"
         d="M 0.65625,0.84375 H 2.894531 V 3.082031 H 0.65625 Z m 0,0"
         inkscape:connector-curvature="0" />
    </clipPath>
    <clipPath
       id="clip33">
      <rect
         id="rect10692"
         height="6"
         width="6"
         y="0"
         x="0" />
    </clipPath>
    <clipPath
       id="clip34">
      <path
         id="path10689"
         d="M 0.0234375,0.207031 H 5.53125 V 5.714844 H 0.0234375 Z m 0,0"
         inkscape:connector-curvature="0" />
    </clipPath>
    <clipPath
       id="clipPath16720">
      <rect
         id="rect16718"
         height="6"
         width="6"
         y="0"
         x="0" />
    </clipPath>
    <clipPath
       id="clipPath16724">
      <path
         id="path16722"
         d="M 0.0234375,0.207031 H 5.53125 V 5.714844 H 0.0234375 Z m 0,0"
         inkscape:connector-curvature="0" />
    </clipPath>
    <clipPath
       id="clip35">
      <rect
         id="rect10703"
         height="10"
         width="11"
         y="0"
         x="0" />
    </clipPath>
    <clipPath
       id="clip36">
      <path
         id="path10700"
         d="m 0.863281,0.0976562 h 9.726563 V 9.824219 H 0.863281 Z m 0,0"
         inkscape:connector-curvature="0" />
    </clipPath>
    <clipPath
       id="clipPath16732">
      <rect
         id="rect16730"
         height="10"
         width="11"
         y="0"
         x="0" />
    </clipPath>
    <clipPath
       id="clipPath16736">
      <path
         id="path16734"
         d="m 0.863281,0.0976562 h 9.726563 V 9.824219 H 0.863281 Z m 0,0"
         inkscape:connector-curvature="0" />
    </clipPath>
  </defs>
  <sodipodi:namedview
     id="base"
     pagecolor="#ffffff"
     bordercolor="#666666"
     borderopacity="1.0"
     inkscape:pageopacity="0.0"
     inkscape:pageshadow="2"
     inkscape:zoom="32"
     inkscape:cx="9.9469975"
     inkscape:cy="-1.9643513"
     inkscape:document-units="mm"
     inkscape:current-layer="layer1"
     showgrid="false"
     fit-margin-top="0"
     fit-margin-left="0"
     fit-margin-right="0"
     fit-margin-bottom="0"
     inkscape:window-width="2510"
     inkscape:window-height="1385"
     inkscape:window-x="50"
     inkscape:window-y="27"
     inkscape:window-maximized="1" />
  <metadata
     id="metadata15659">
    <rdf:RDF>
      <cc:Work
         rdf:about="">
        <dc:format>image/svg+xml</dc:format>
        <dc:type
           rdf:resource="http://purl.org/dc/dcmitype/StillImage" />
        <dc:title></dc:title>
      </cc:Work>
    </rdf:RDF>
  </metadata>
  <g
     inkscape:label="Capa 1"
     inkscape:groupmode="layer"
     id="layer1"
     transform="translate(286.49692,-36.485202)">
    <g
       id="g16907">
      <g
         transform="matrix(0.09333913,0,0,0.09333913,-286.2087,36.755922)"
         id="use13327"
         clip-path="url(#clip31)">
        <g
           style="clip-rule:nonzero"
           clip-path="url(#clip32)"
           id="g16873">
          <path
             inkscape:connector-curvature="0"
             style="fill:#61615e;fill-opacity:1;fill-rule:nonzero;stroke:none"
             d="m 1.777344,0.84375 c -0.617188,0 -1.121094,0.5 -1.121094,1.117188 0,0.617187 0.503906,1.121093 1.121094,1.121093 0.617187,0 1.117187,-0.503906 1.117187,-1.121093 0,-0.617188 -0.5,-1.117188 -1.117187,-1.117188"
             id="path16871" />
        </g>
      </g>
      <g
         transform="matrix(0.09333913,0,0,0.09333913,-286.30222,36.662765)"
         id="use13329"
         clip-path="url(#clip33)">
        <g
           style="clip-rule:nonzero"
           clip-path="url(#clip34)"
           id="g16879">
          <path
             inkscape:connector-curvature="0"
             style="fill:#61615e;fill-opacity:1;fill-rule:nonzero;stroke:none"
             d="m 4.570312,1.570312 c -0.222656,0 -0.402343,-0.179687 -0.402343,-0.402343 0,-0.222657 0.179687,-0.402344 0.402343,-0.402344 0.222657,0 0.402344,0.179687 0.402344,0.402344 0,0.222656 -0.179687,0.402343 -0.402344,0.402343 M 2.777344,4.6875 c -0.953125,0 -1.726563,-0.773438 -1.726563,-1.726562 0,-0.953126 0.773438,-1.722657 1.726563,-1.722657 C 3.730469,1.238281 4.5,2.007812 4.5,2.960938 4.5,3.914062 3.730469,4.6875 2.777344,4.6875 M 5.394531,0.980469 C 5.332031,0.824219 5.261719,0.714844 5.144531,0.59375 5.027344,0.476562 4.914062,0.40625 4.757812,0.34375 4.640625,0.296875 4.460938,0.242188 4.132812,0.226562 3.78125,0.210938 3.671875,0.207031 2.777344,0.207031 c -0.898438,0 -1.003906,0.003907 -1.355469,0.019531 -0.328125,0.015626 -0.507813,0.070313 -0.625,0.117188 -0.15625,0.0625 -0.269531,0.132812 -0.386719,0.25 -0.117187,0.121094 -0.191406,0.230469 -0.25,0.386719 -0.046875,0.117187 -0.1015622,0.296875 -0.1171872,0.625 -0.015625,0.351562 -0.0195313,0.460937 -0.0195313,1.355469 0,0.898437 0.0039063,1.003906 0.0195313,1.359374 0.015625,0.324219 0.0703122,0.503907 0.1171872,0.621094 0.058594,0.15625 0.132813,0.269532 0.25,0.386719 0.117188,0.117187 0.230469,0.191406 0.386719,0.25 0.117187,0.046875 0.296875,0.101563 0.625,0.117187 0.351563,0.015626 0.457031,0.019532 1.355469,0.019532 0.894531,0 1.003906,-0.00391 1.355468,-0.019532 0.328126,-0.015624 0.507813,-0.070312 0.625,-0.117187 0.15625,-0.058594 0.269532,-0.132813 0.386719,-0.25 0.117188,-0.117187 0.1875,-0.230469 0.25,-0.386719 C 5.441406,4.824219 5.496094,4.644531 5.511719,4.320312 5.527344,3.964844 5.53125,3.859375 5.53125,2.960938 5.53125,2.066406 5.527344,1.957031 5.511719,1.605469 5.496094,1.277344 5.441406,1.097656 5.394531,0.980469"
             id="path16877" />
        </g>
      </g>
      <g
         transform="matrix(0.09333913,0,0,0.09333913,-286.5775,36.476087)"
         id="use13331"
         clip-path="url(#clip35)">
        <g
           style="clip-rule:nonzero"
           clip-path="url(#clip36)"
           id="g16885">
          <path
             inkscape:connector-curvature="0"
             style="fill:#61615e;fill-opacity:1;fill-rule:nonzero;stroke:none"
             d="M 9.113281,6.347656 C 9.097656,6.703125 9.042969,6.949219 8.960938,7.160156 8.871094,7.382812 8.757812,7.570312 8.570312,7.753906 8.386719,7.941406 8.199219,8.058594 7.976562,8.144531 7.761719,8.226562 7.519531,8.28125 7.160156,8.300781 6.804688,8.316406 6.6875,8.320312 5.777344,8.320312 4.863281,8.320312 4.75,8.316406 4.394531,8.300781 4.035156,8.28125 3.789062,8.226562 3.578125,8.144531 3.355469,8.058594 3.167969,7.941406 2.984375,7.753906 2.796875,7.570312 2.679688,7.382812 2.59375,7.160156 2.511719,6.949219 2.453125,6.703125 2.4375,6.347656 2.421875,5.988281 2.417969,5.875 2.417969,4.960938 2.417969,4.050781 2.421875,3.933594 2.4375,3.578125 2.453125,3.21875 2.511719,2.976562 2.59375,2.761719 2.679688,2.539062 2.796875,2.355469 2.984375,2.167969 3.167969,1.980469 3.355469,1.867188 3.578125,1.78125 3.789062,1.695312 4.035156,1.640625 4.394531,1.625 4.75,1.605469 4.863281,1.601562 5.777344,1.601562 c 0.910156,0 1.027344,0.00391 1.382812,0.023438 0.359375,0.015625 0.601563,0.070312 0.816406,0.15625 0.222657,0.085938 0.410157,0.199219 0.59375,0.386719 0.1875,0.1875 0.300782,0.371093 0.390626,0.59375 0.082031,0.214843 0.136718,0.457031 0.152343,0.816406 0.019531,0.355469 0.023438,0.472656 0.023438,1.382813 0,0.914062 -0.00391,1.027343 -0.023438,1.386718 M 9.882812,0.0976562 h -8.3125 c -0.390624,0 -0.707031,0.3164058 -0.707031,0.7070318 v 8.3125 c 0,0.390624 0.316407,0.707031 0.707031,0.707031 h 8.3125 c 0.390626,0 0.707032,-0.316407 0.707032,-0.707031 v -8.3125 c 0,-0.390626 -0.316406,-0.7070318 -0.707032,-0.7070318"
             id="path16883" />
        </g>
      </g>
    </g>
  </g>
</svg>
