<svg xmlns="http://www.w3.org/2000/svg" viewBox="0 0 1022.78 698.11"><defs><style>.cls-1{isolation:isolate;}.cls-2{mix-blend-mode:multiply;}.cls-3{fill:#a12338;}</style></defs><title>Recurso 83</title><g class="cls-1"><g id="Capa_2" data-name="Capa 2"><g id="Diseño"><g class="cls-2"><path class="cls-3" d="M488.24,678.44a32.32,32.32,0,0,0,30.49-21.66l49.32-141.25a32.29,32.29,0,0,0-61-21.29L457.75,635.49a32.33,32.33,0,0,0,30.49,43Z"/><path class="cls-3" d="M1022.78,239l-12.4-12a32.29,32.29,0,0,0-45,46.32L1022.78,329Z"/><path class="cls-3" d="M1022.78,626,877.62,553.89a32.29,32.29,0,1,0-28.73,57.84l173.89,86.38Z"/><path class="cls-3" d="M764.85,0l-38,103.09L553.38,27.69a32.29,32.29,0,1,0-25.74,59.23l204.87,89a32.31,32.31,0,0,0,43.18-18.46L833.67,0Z"/><path class="cls-3" d="M32.11,189.15A32.31,32.31,0,0,0,0,171.1v69.54l17.17-8.34A32.29,32.29,0,0,0,32.11,189.15Z"/><path class="cls-3" d="M34.53,354.87A32.29,32.29,0,0,0,.78,362.1V540l52.9-143.69A32.29,32.29,0,0,0,34.53,354.87Z"/></g></g></g></g></svg>