<svg xmlns="http://www.w3.org/2000/svg" viewBox="0 0 176.36 67.08"><defs><style>.cls-1{fill:#383737;}.cls-2{fill:#a12338;}</style></defs><title>TIW_Logo</title><g id="Capa_2" data-name="Capa 2"><g id="Diseño"><path class="cls-1" d="M45.44,1.41V14.82H43.86V1.41H39.57V0H49.73V1.41Z"/><path class="cls-1" d="M64,14.82V8.06H57v6.76H55.4V0H57V6.64h7V0H65.6V14.82Z"/><path class="cls-1" d="M72.8,14.82V0H82V1.41H74.38V6.64h6.5V8.06h-6.5v5.35H82v1.41Z"/><path class="cls-2" d="M40.67,41V26.13h2.89V41Z"/><path class="cls-2" d="M56.13,41h-6.2V26.13h6c2.9,0,4.59,1.62,4.59,4.16a3.42,3.42,0,0,1-1.84,3.06,3.45,3.45,0,0,1,2,3.33C60.67,39.45,58.78,41,56.13,41Zm-.47-12.24H52.82v3.42h2.84a1.72,1.72,0,1,0,0-3.42Zm.18,6h-3v3.64h3a1.82,1.82,0,1,0,0-3.64Z"/><path class="cls-2" d="M66.54,41V26.13H76.3v2.58H69.43v3.48h5.85v2.58H69.43v3.6H76.3V41Z"/><path class="cls-2" d="M89.91,41,87,35H84.94V41H82V26.13h5.81a4.48,4.48,0,0,1,4.81,4.54A4,4,0,0,1,90,34.56L93.26,41ZM87.66,28.71H84.94v3.92h2.72a2,2,0,1,0,0-3.92Z"/><path class="cls-2" d="M104.77,41H98.56V26.13h6c2.89,0,4.58,1.62,4.58,4.16a3.41,3.41,0,0,1-1.83,3.06,3.46,3.46,0,0,1,2,3.33C109.31,39.45,107.41,41,104.77,41Zm-.48-12.24h-2.83v3.42h2.83a1.72,1.72,0,1,0,0-3.42Zm.19,6h-3v3.64h3a1.82,1.82,0,1,0,0-3.64Z"/><path class="cls-2" d="M123,41,120.15,35h-2.08V41h-2.9V26.13H121a4.48,4.48,0,0,1,4.81,4.54,4,4,0,0,1-2.71,3.89L126.39,41Zm-2.25-12.24h-2.72v3.92h2.72a2,2,0,1,0,0-3.92Z"/><path class="cls-2" d="M140.13,41l-.88-2.62H134l-.9,2.62h-3l5.39-14.82h2.27L143.14,41ZM136.67,30.5l-1.87,5.4h3.68Z"/><path class="cls-2" d="M156.65,41l-5.87-9.09V41h-2.9V26.13h2.59l5.87,9.08V26.13h2.89V41Z"/><path class="cls-2" d="M174.86,39.54A5.39,5.39,0,0,1,170.94,41h-5.35V26.13h5.35a5.4,5.4,0,0,1,3.92,1.42c1.66,1.66,1.5,3.7,1.5,5.93S176.52,37.87,174.86,39.54Zm-2-9.91a2.58,2.58,0,0,0-2.17-.92h-2.18v9.66h2.18a2.6,2.6,0,0,0,2.17-.91c.54-.67.62-1.73.62-4S173.38,30.29,172.84,29.63Z"/><path class="cls-1" d="M52.6,67.08H51.12L47.83,55.22,44.54,67.08H43.06L39.28,52.26H41l2.9,11.95,3.26-11.95h1.42l3.27,11.95L54.7,52.26h1.69Z"/><path class="cls-1" d="M70.41,67.08l-1.19-3.35H62.75l-1.19,3.35H59.88l5.45-14.82h1.33L72.1,67.08ZM66,54.53l-2.79,7.83h5.54Z"/><path class="cls-1" d="M81.42,61v6.12H79.84V61l-4.42-8.7h1.71l3.5,7.1,3.45-7.1h1.71Z"/><path class="cls-2" d="M18.13,4.46H1.52a1.52,1.52,0,0,1,0-3H18.13a1.52,1.52,0,0,1,0,3Zm0-.52h0Z"/><path class="cls-2" d="M3.7,48.32a1.53,1.53,0,0,1-1.52-1.58,1.51,1.51,0,0,1,.49-1.06L15.31,34.06,2.73,22.44a1.47,1.47,0,0,1-.49-1.05,1.49,1.49,0,0,1,.4-1.1,1.54,1.54,0,0,1,2.15-.09l13.8,12.74a1.53,1.53,0,0,1,0,2.24L4.73,47.92A1.57,1.57,0,0,1,3.7,48.32Zm.73-27.74h0Z"/></g></g></svg>