<?xml version="1.0" encoding="UTF-8" standalone="no"?>
<!-- Created with Inkscape (http://www.inkscape.org/) -->

<svg
   xmlns:dc="http://purl.org/dc/elements/1.1/"
   xmlns:cc="http://creativecommons.org/ns#"
   xmlns:rdf="http://www.w3.org/1999/02/22-rdf-syntax-ns#"
   xmlns:svg="http://www.w3.org/2000/svg"
   xmlns="http://www.w3.org/2000/svg"
   xmlns:sodipodi="http://sodipodi.sourceforge.net/DTD/sodipodi-0.dtd"
   xmlns:inkscape="http://www.inkscape.org/namespaces/inkscape"
   width="0.90786874mm"
   height="0.9078688mm"
   viewBox="0 0 0.90786874 0.9078688"
   version="1.1"
   id="svg15662"
   inkscape:version="0.92.4 5da689c313, 2019-01-14"
   sodipodi:docname="twitter.svg">
  <defs
     id="defs15656">
    <clipPath
       id="clip25">
      <rect
         id="rect10648"
         height="10"
         width="11"
         y="0"
         x="0" />
    </clipPath>
    <clipPath
       id="clip26">
      <path
         id="path10645"
         d="M 0.558594,0.0976562 H 10.28125 V 9.824219 H 0.558594 Z m 0,0"
         inkscape:connector-curvature="0" />
    </clipPath>
    <clipPath
       id="clipPath15649">
      <rect
         id="rect15647"
         height="10"
         width="11"
         y="0"
         x="0" />
    </clipPath>
    <clipPath
       id="clipPath15653">
      <path
         id="path15651"
         d="M 0.558594,0.0976562 H 10.28125 V 9.824219 H 0.558594 Z m 0,0"
         inkscape:connector-curvature="0" />
    </clipPath>
    <clipPath
       id="clip27">
      <rect
         id="rect10659"
         height="10"
         width="11"
         y="0"
         x="0" />
    </clipPath>
    <clipPath
       id="clip28">
      <path
         id="path10656"
         d="m 0.660156,0.0976562 h 9.726563 V 9.824219 H 0.660156 Z m 0,0"
         inkscape:connector-curvature="0" />
    </clipPath>
    <clipPath
       id="clipPath16271">
      <rect
         id="rect16269"
         height="10"
         width="11"
         y="0"
         x="0" />
    </clipPath>
    <clipPath
       id="clipPath16275">
      <path
         id="path16273"
         d="m 0.660156,0.0976562 h 9.726563 V 9.824219 H 0.660156 Z m 0,0"
         inkscape:connector-curvature="0" />
    </clipPath>
    <clipPath
       id="clip29">
      <rect
         id="rect10670"
         height="10"
         width="11"
         y="0"
         x="0" />
    </clipPath>
    <clipPath
       id="clip30">
      <path
         id="path10667"
         d="m 0.761719,0.0976562 h 9.726562 V 9.824219 H 0.761719 Z m 0,0"
         inkscape:connector-curvature="0" />
    </clipPath>
    <clipPath
       id="clipPath16342">
      <rect
         id="rect16340"
         height="10"
         width="11"
         y="0"
         x="0" />
    </clipPath>
    <clipPath
       id="clipPath16346">
      <path
         id="path16344"
         d="m 0.761719,0.0976562 h 9.726562 V 9.824219 H 0.761719 Z m 0,0"
         inkscape:connector-curvature="0" />
    </clipPath>
  </defs>
  <sodipodi:namedview
     id="base"
     pagecolor="#ffffff"
     bordercolor="#666666"
     borderopacity="1.0"
     inkscape:pageopacity="0.0"
     inkscape:pageshadow="2"
     inkscape:zoom="90.509668"
     inkscape:cx="-1.4791582"
     inkscape:cy="2.2527102"
     inkscape:document-units="mm"
     inkscape:current-layer="layer1"
     showgrid="false"
     fit-margin-top="0"
     fit-margin-left="0"
     fit-margin-right="0"
     fit-margin-bottom="0"
     inkscape:window-width="2510"
     inkscape:window-height="1385"
     inkscape:window-x="50"
     inkscape:window-y="27"
     inkscape:window-maximized="1" />
  <metadata
     id="metadata15659">
    <rdf:RDF>
      <cc:Work
         rdf:about="">
        <dc:format>image/svg+xml</dc:format>
        <dc:type
           rdf:resource="http://purl.org/dc/dcmitype/StillImage" />
        <dc:title></dc:title>
      </cc:Work>
    </rdf:RDF>
  </metadata>
  <g
     inkscape:label="Capa 1"
     inkscape:groupmode="layer"
     id="layer1"
     transform="translate(284.56235,-37.073062)">
    <g
       transform="matrix(0.09333912,0,0,0.09333912,-284.63345,37.063947)"
       id="use13325"
       clip-path="url(#clip29)">
      <g
         style="clip-rule:nonzero"
         clip-path="url(#clip30)"
         id="g16376">
        <path
           inkscape:connector-curvature="0"
           style="fill:#61615e;fill-opacity:1;fill-rule:nonzero;stroke:none"
           d="m 8.042969,3.722656 c 0,0.054688 0.00391,0.105469 0.00391,0.160156 0,1.648438 -1.257813,3.546876 -3.550781,3.546876 -0.703125,0 -1.359375,-0.203126 -1.910156,-0.558594 0.097656,0.011718 0.195312,0.019531 0.296874,0.019531 0.585938,0 1.121094,-0.203125 1.550782,-0.535156 C 3.886719,6.34375 3.425781,5.984375 3.265625,5.488281 3.34375,5.503906 3.421875,5.511719 3.5,5.511719 c 0.113281,0 0.226562,-0.015625 0.328125,-0.042969 -0.570313,-0.117188 -1,-0.621094 -1,-1.222656 0,-0.00781 0,-0.011719 0,-0.015625 0.167969,0.09375 0.363281,0.148437 0.566406,0.15625 C 3.058594,4.160156 2.839844,3.78125 2.839844,3.347656 c 0,-0.230468 0.0625,-0.445312 0.167968,-0.628906 C 3.625,3.472656 4.542969,3.972656 5.578125,4.023438 5.507812,3.726562 5.550781,3.386719 5.722656,3.042969 5.773438,2.9375 5.859375,2.839844 5.957031,2.773438 6.613281,2.316406 7.308594,2.460938 7.703125,2.886719 7.988281,2.828125 8.253906,2.726562 8.496094,2.582031 8.402344,2.875 8.203125,3.117188 7.949219,3.273438 c 0.25,-0.03125 0.492187,-0.097657 0.714843,-0.199219 -0.167968,0.25 -0.378906,0.472656 -0.621093,0.648437 M 9.78125,0.0976562 h -8.3125 c -0.390625,0 -0.707031,0.3164058 -0.707031,0.7070318 v 8.3125 c 0,0.390624 0.316406,0.707031 0.707031,0.707031 h 8.3125 c 0.390625,0 0.707031,-0.316407 0.707031,-0.707031 v -8.3125 c 0,-0.390626 -0.316406,-0.7070318 -0.707031,-0.7070318"
           id="path16374" />
      </g>
    </g>
  </g>
</svg>
